<mxfile host="65bd71144e">
    <diagram id="I8anxFRtSkPn7tdOQA1C" name="Page-1">
        <mxGraphModel dx="648" dy="415" grid="1" gridSize="10" guides="1" tooltips="1" connect="1" arrows="1" fold="1" page="1" pageScale="1" pageWidth="850" pageHeight="1100" math="0" shadow="0">
            <root>
                <mxCell id="0"/>
                <mxCell id="1" parent="0"/>
                <mxCell id="15" value="loop" style="shape=umlFrame;whiteSpace=wrap;html=1;width=40;height=20;" vertex="1" parent="1">
                    <mxGeometry x="110" y="370" width="570" height="110" as="geometry"/>
                </mxCell>
                <mxCell id="_CFHxgKOf0Js7Ksg64Oo-1" style="edgeStyle=orthogonalEdgeStyle;rounded=0;orthogonalLoop=1;jettySize=auto;html=1;" parent="1" source="_CFHxgKOf0Js7Ksg64Oo-2" target="_CFHxgKOf0Js7Ksg64Oo-4" edge="1">
                    <mxGeometry relative="1" as="geometry">
                        <Array as="points">
                            <mxPoint x="190" y="240"/>
                            <mxPoint x="190" y="240"/>
                        </Array>
                    </mxGeometry>
                </mxCell>
                <mxCell id="_CFHxgKOf0Js7Ksg64Oo-2" value="" style="shape=umlLifeline;participant=umlActor;perimeter=lifelinePerimeter;whiteSpace=wrap;html=1;container=1;collapsible=0;recursiveResize=0;verticalAlign=top;spacingTop=36;outlineConnect=0;size=80;" parent="1" vertex="1">
                    <mxGeometry x="120" y="120" width="40" height="520" as="geometry"/>
                </mxCell>
                <mxCell id="_CFHxgKOf0Js7Ksg64Oo-28" style="edgeStyle=orthogonalEdgeStyle;rounded=0;orthogonalLoop=1;jettySize=auto;html=1;dashed=1;endArrow=open;endFill=0;" parent="1" source="_CFHxgKOf0Js7Ksg64Oo-4" target="_CFHxgKOf0Js7Ksg64Oo-2" edge="1">
                    <mxGeometry relative="1" as="geometry">
                        <mxPoint x="180" y="310.0000000000001" as="targetPoint"/>
                        <Array as="points">
                            <mxPoint x="190" y="290"/>
                            <mxPoint x="190" y="290"/>
                        </Array>
                    </mxGeometry>
                </mxCell>
                <mxCell id="_CFHxgKOf0Js7Ksg64Oo-34" style="edgeStyle=orthogonalEdgeStyle;rounded=0;orthogonalLoop=1;jettySize=auto;html=1;endArrow=classic;endFill=1;" parent="1" source="_CFHxgKOf0Js7Ksg64Oo-4" edge="1">
                    <mxGeometry relative="1" as="geometry">
                        <Array as="points">
                            <mxPoint x="290" y="360"/>
                            <mxPoint x="290" y="360"/>
                        </Array>
                        <mxPoint x="480" y="360" as="targetPoint"/>
                    </mxGeometry>
                </mxCell>
                <mxCell id="_CFHxgKOf0Js7Ksg64Oo-4" value="Main" style="shape=umlLifeline;participant=umlBoundary;perimeter=lifelinePerimeter;whiteSpace=wrap;html=1;container=1;collapsible=0;recursiveResize=0;verticalAlign=bottom;spacingTop=36;outlineConnect=0;size=50;labelPosition=center;verticalLabelPosition=top;align=center;" parent="1" vertex="1">
                    <mxGeometry x="210" y="132" width="60" height="510" as="geometry"/>
                </mxCell>
                <mxCell id="_CFHxgKOf0Js7Ksg64Oo-26" style="edgeStyle=orthogonalEdgeStyle;rounded=0;orthogonalLoop=1;jettySize=auto;html=1;dashed=1;endArrow=open;endFill=0;" parent="1" source="_CFHxgKOf0Js7Ksg64Oo-10" target="_CFHxgKOf0Js7Ksg64Oo-4" edge="1">
                    <mxGeometry relative="1" as="geometry">
                        <Array as="points">
                            <mxPoint x="360" y="280"/>
                            <mxPoint x="360" y="280"/>
                        </Array>
                    </mxGeometry>
                </mxCell>
                <mxCell id="13" style="edgeStyle=none;html=1;dashed=1;endArrow=open;endFill=0;" edge="1" parent="1" target="_CFHxgKOf0Js7Ksg64Oo-2">
                    <mxGeometry relative="1" as="geometry">
                        <mxPoint x="359.71" y="530" as="sourcePoint"/>
                        <mxPoint x="239.87666666666652" y="530" as="targetPoint"/>
                        <Array as="points">
                            <mxPoint x="340.21" y="530"/>
                        </Array>
                    </mxGeometry>
                </mxCell>
                <mxCell id="_CFHxgKOf0Js7Ksg64Oo-5" value="CompetitionList" style="shape=umlLifeline;participant=umlBoundary;perimeter=lifelinePerimeter;whiteSpace=wrap;html=1;container=1;collapsible=0;recursiveResize=0;verticalAlign=bottom;spacingTop=36;outlineConnect=0;size=50;labelPosition=center;verticalLabelPosition=top;align=center;" parent="1" vertex="1">
                    <mxGeometry x="330" y="132" width="60" height="510" as="geometry"/>
                </mxCell>
                <mxCell id="_CFHxgKOf0Js7Ksg64Oo-6" value="press +&lt;br&gt;(Add)" style="text;html=1;strokeColor=none;fillColor=none;align=center;verticalAlign=middle;whiteSpace=wrap;rounded=0;fontSize=9;" parent="1" vertex="1">
                    <mxGeometry x="160" y="210" width="60" height="30" as="geometry"/>
                </mxCell>
                <mxCell id="_CFHxgKOf0Js7Ksg64Oo-7" style="edgeStyle=orthogonalEdgeStyle;rounded=0;orthogonalLoop=1;jettySize=auto;html=1;" parent="1" target="_CFHxgKOf0Js7Ksg64Oo-5" edge="1">
                    <mxGeometry relative="1" as="geometry">
                        <mxPoint x="240.00034482758622" y="250" as="sourcePoint"/>
                        <mxPoint x="339.69" y="250" as="targetPoint"/>
                        <Array as="points">
                            <mxPoint x="320" y="250"/>
                            <mxPoint x="320" y="250"/>
                        </Array>
                    </mxGeometry>
                </mxCell>
                <mxCell id="_CFHxgKOf0Js7Ksg64Oo-8" value="addButtonClicked()" style="text;html=1;strokeColor=none;fillColor=none;align=center;verticalAlign=middle;whiteSpace=wrap;rounded=0;fontSize=9;" parent="1" vertex="1">
                    <mxGeometry x="270" y="220" width="60" height="30" as="geometry"/>
                </mxCell>
                <mxCell id="6" style="edgeStyle=none;html=1;" edge="1" parent="1">
                    <mxGeometry relative="1" as="geometry">
                        <mxPoint x="479.7966666666665" y="499.17" as="sourcePoint"/>
                        <mxPoint x="599.63" y="499.17" as="targetPoint"/>
                        <Array as="points">
                            <mxPoint x="560.13" y="499.17"/>
                        </Array>
                    </mxGeometry>
                </mxCell>
                <mxCell id="20" style="edgeStyle=none;rounded=0;html=1;endArrow=open;endFill=0;dashed=1;" edge="1" parent="1" source="_CFHxgKOf0Js7Ksg64Oo-10" target="_CFHxgKOf0Js7Ksg64Oo-2">
                    <mxGeometry relative="1" as="geometry">
                        <Array as="points">
                            <mxPoint x="420" y="410"/>
                        </Array>
                    </mxGeometry>
                </mxCell>
                <mxCell id="_CFHxgKOf0Js7Ksg64Oo-10" value="CompetitionInfo" style="shape=umlLifeline;participant=umlBoundary;perimeter=lifelinePerimeter;whiteSpace=wrap;html=1;container=1;collapsible=0;recursiveResize=0;verticalAlign=bottom;spacingTop=36;outlineConnect=0;size=50;labelPosition=center;verticalLabelPosition=top;align=center;" parent="1" vertex="1">
                    <mxGeometry x="450" y="132" width="60" height="510" as="geometry"/>
                </mxCell>
                <mxCell id="_CFHxgKOf0Js7Ksg64Oo-27" value="return" style="text;html=1;strokeColor=none;fillColor=none;align=center;verticalAlign=middle;whiteSpace=wrap;rounded=0;fontSize=9;" parent="1" vertex="1">
                    <mxGeometry x="270" y="260" width="60" height="20" as="geometry"/>
                </mxCell>
                <mxCell id="_CFHxgKOf0Js7Ksg64Oo-29" value="Competiton fields Appears empty to fill it" style="text;html=1;strokeColor=none;fillColor=none;align=center;verticalAlign=middle;whiteSpace=wrap;rounded=0;fontSize=9;" parent="1" vertex="1">
                    <mxGeometry x="160" y="260" width="60" height="20" as="geometry"/>
                </mxCell>
                <mxCell id="_CFHxgKOf0Js7Ksg64Oo-30" style="edgeStyle=orthogonalEdgeStyle;rounded=0;orthogonalLoop=1;jettySize=auto;html=1;" parent="1" edge="1">
                    <mxGeometry relative="1" as="geometry">
                        <Array as="points">
                            <mxPoint x="190.34" y="349.97"/>
                            <mxPoint x="190.34" y="349.97"/>
                        </Array>
                        <mxPoint x="140.15034482758622" y="350.0044827586207" as="sourcePoint"/>
                        <mxPoint x="239.84" y="350.0044827586207" as="targetPoint"/>
                    </mxGeometry>
                </mxCell>
                <mxCell id="_CFHxgKOf0Js7Ksg64Oo-33" value="enters Comptetiton details&lt;br&gt;and prees sumbit&amp;nbsp;" style="text;html=1;strokeColor=none;fillColor=none;align=center;verticalAlign=middle;whiteSpace=wrap;rounded=0;fontSize=9;" parent="1" vertex="1">
                    <mxGeometry x="160" y="310" width="60" height="30" as="geometry"/>
                </mxCell>
                <mxCell id="_CFHxgKOf0Js7Ksg64Oo-35" style="edgeStyle=orthogonalEdgeStyle;rounded=0;orthogonalLoop=1;jettySize=auto;html=1;" parent="1" edge="1">
                    <mxGeometry relative="1" as="geometry">
                        <mxPoint x="360.0003448275862" y="269.66" as="sourcePoint"/>
                        <mxPoint x="479.5" y="269.6944827586207" as="targetPoint"/>
                        <Array as="points">
                            <mxPoint x="440" y="269.66"/>
                            <mxPoint x="440" y="269.66"/>
                        </Array>
                    </mxGeometry>
                </mxCell>
                <mxCell id="_CFHxgKOf0Js7Ksg64Oo-36" value="displayEmpty()" style="text;html=1;strokeColor=none;fillColor=none;align=center;verticalAlign=middle;whiteSpace=wrap;rounded=0;fontSize=9;" parent="1" vertex="1">
                    <mxGeometry x="390" y="250" width="60" height="20" as="geometry"/>
                </mxCell>
                <mxCell id="8" style="edgeStyle=none;html=1;" edge="1" parent="1">
                    <mxGeometry relative="1" as="geometry">
                        <mxPoint x="600.13" y="520" as="sourcePoint"/>
                        <mxPoint x="360.2966666666665" y="520" as="targetPoint"/>
                        <Array as="points">
                            <mxPoint x="510.63" y="520"/>
                        </Array>
                    </mxGeometry>
                </mxCell>
                <mxCell id="2" value="CompetitionManager" style="shape=umlLifeline;participant=umlControl;perimeter=lifelinePerimeter;whiteSpace=wrap;html=1;container=1;collapsible=0;recursiveResize=0;verticalAlign=bottom;spacingTop=36;outlineConnect=0;size=50;labelPosition=center;verticalLabelPosition=top;align=center;" vertex="1" parent="1">
                    <mxGeometry x="580" y="132" width="40" height="510" as="geometry"/>
                </mxCell>
                <mxCell id="3" value="SubmitButtonClicked()" style="text;html=1;strokeColor=none;fillColor=none;align=center;verticalAlign=middle;whiteSpace=wrap;rounded=0;fontSize=9;" vertex="1" parent="1">
                    <mxGeometry x="314.94" y="340" width="90" height="20" as="geometry"/>
                </mxCell>
                <mxCell id="7" value="add(newCompetition)" style="text;html=1;strokeColor=none;fillColor=none;align=center;verticalAlign=middle;whiteSpace=wrap;rounded=0;fontSize=9;" vertex="1" parent="1">
                    <mxGeometry x="480.13" y="490" width="120" height="10" as="geometry"/>
                </mxCell>
                <mxCell id="9" value="updateCompetitionList()" style="text;html=1;strokeColor=none;fillColor=none;align=center;verticalAlign=middle;whiteSpace=wrap;rounded=0;fontSize=9;" vertex="1" parent="1">
                    <mxGeometry x="420.21" y="500" width="120" height="20" as="geometry"/>
                </mxCell>
                <mxCell id="11" value="displayCompetiton(newCompetition)" style="text;html=1;strokeColor=none;fillColor=none;align=center;verticalAlign=middle;whiteSpace=wrap;rounded=0;fontSize=9;" vertex="1" parent="1">
                    <mxGeometry x="500" y="560" width="120" height="20" as="geometry"/>
                </mxCell>
                <mxCell id="14" value="return" style="text;html=1;strokeColor=none;fillColor=none;align=center;verticalAlign=middle;whiteSpace=wrap;rounded=0;fontSize=9;" vertex="1" parent="1">
                    <mxGeometry x="219.99999999999997" y="509" width="60" height="20" as="geometry"/>
                </mxCell>
                <mxCell id="16" value="[ ! isValid() ]" style="text;html=1;strokeColor=none;fillColor=none;align=center;verticalAlign=middle;whiteSpace=wrap;rounded=0;fontSize=9;" vertex="1" parent="1">
                    <mxGeometry x="160" y="370" width="60" height="20" as="geometry"/>
                </mxCell>
                <mxCell id="17" style="edgeStyle=none;html=1;endArrow=classic;endFill=1;rounded=0;" edge="1" parent="1">
                    <mxGeometry relative="1" as="geometry">
                        <mxPoint x="479.6666666666665" y="380" as="sourcePoint"/>
                        <mxPoint x="479.6666666666665" y="400" as="targetPoint"/>
                        <Array as="points">
                            <mxPoint x="530" y="380"/>
                            <mxPoint x="530" y="400"/>
                        </Array>
                    </mxGeometry>
                </mxCell>
                <mxCell id="18" value="DisplayError(msg)" style="text;html=1;strokeColor=none;fillColor=none;align=center;verticalAlign=middle;whiteSpace=wrap;rounded=0;fontSize=9;" vertex="1" parent="1">
                    <mxGeometry x="530" y="380" width="80" height="20" as="geometry"/>
                </mxCell>
                <mxCell id="21" value="return" style="text;html=1;strokeColor=none;fillColor=none;align=center;verticalAlign=middle;whiteSpace=wrap;rounded=0;fontSize=9;" vertex="1" parent="1">
                    <mxGeometry x="270" y="390" width="60" height="20" as="geometry"/>
                </mxCell>
                <mxCell id="22" style="edgeStyle=orthogonalEdgeStyle;rounded=0;orthogonalLoop=1;jettySize=auto;html=1;" edge="1" parent="1">
                    <mxGeometry relative="1" as="geometry">
                        <Array as="points">
                            <mxPoint x="190.34" y="439.97"/>
                            <mxPoint x="190.34" y="439.97"/>
                        </Array>
                        <mxPoint x="140.1503448275862" y="440.0044827586207" as="sourcePoint"/>
                        <mxPoint x="239.83999999999992" y="440.0044827586207" as="targetPoint"/>
                    </mxGeometry>
                </mxCell>
                <mxCell id="23" value="Fills Empty Filed" style="text;html=1;strokeColor=none;fillColor=none;align=center;verticalAlign=middle;whiteSpace=wrap;rounded=0;fontSize=9;" vertex="1" parent="1">
                    <mxGeometry x="160" y="420" width="60" height="20" as="geometry"/>
                </mxCell>
                <mxCell id="24" value="SubmitButtonClicked()" style="text;html=1;strokeColor=none;fillColor=none;align=center;verticalAlign=middle;whiteSpace=wrap;rounded=0;fontSize=9;" vertex="1" parent="1">
                    <mxGeometry x="315.07" y="430" width="90" height="20" as="geometry"/>
                </mxCell>
                <mxCell id="25" style="edgeStyle=orthogonalEdgeStyle;rounded=0;orthogonalLoop=1;jettySize=auto;html=1;endArrow=classic;endFill=1;" edge="1" parent="1">
                    <mxGeometry relative="1" as="geometry">
                        <Array as="points">
                            <mxPoint x="290.13" y="450"/>
                            <mxPoint x="290.13" y="450"/>
                        </Array>
                        <mxPoint x="239.7966666666665" y="450" as="sourcePoint"/>
                        <mxPoint x="480.13" y="450" as="targetPoint"/>
                    </mxGeometry>
                </mxCell>
                <mxCell id="26" style="edgeStyle=none;html=1;" edge="1" parent="1">
                    <mxGeometry relative="1" as="geometry">
                        <mxPoint x="599.9200000000001" y="580" as="sourcePoint"/>
                        <mxPoint x="480" y="580" as="targetPoint"/>
                        <Array as="points">
                            <mxPoint x="510.42" y="580"/>
                        </Array>
                    </mxGeometry>
                </mxCell>
                <mxCell id="27" style="edgeStyle=none;html=1;dashed=1;endArrow=open;endFill=0;" edge="1" parent="1">
                    <mxGeometry relative="1" as="geometry">
                        <mxPoint x="480.00000000000006" y="591" as="sourcePoint"/>
                        <mxPoint x="139.53666666666663" y="591" as="targetPoint"/>
                        <Array as="points">
                            <mxPoint x="460.5" y="591"/>
                        </Array>
                    </mxGeometry>
                </mxCell>
                <mxCell id="28" value="return" style="text;html=1;strokeColor=none;fillColor=none;align=center;verticalAlign=middle;whiteSpace=wrap;rounded=0;fontSize=9;" vertex="1" parent="1">
                    <mxGeometry x="289.87" y="571" width="60" height="20" as="geometry"/>
                </mxCell>
                <mxCell id="29" style="edgeStyle=none;html=1;" edge="1" parent="1">
                    <mxGeometry relative="1" as="geometry">
                        <mxPoint x="599.9200000000001" y="549" as="sourcePoint"/>
                        <mxPoint x="480" y="549" as="targetPoint"/>
                        <Array as="points">
                            <mxPoint x="510.4200000000001" y="549"/>
                        </Array>
                    </mxGeometry>
                </mxCell>
                <mxCell id="30" value="displaySuccess()" style="text;html=1;strokeColor=none;fillColor=none;align=center;verticalAlign=middle;whiteSpace=wrap;rounded=0;fontSize=9;" vertex="1" parent="1">
                    <mxGeometry x="480.13" y="530" width="120" height="20" as="geometry"/>
                </mxCell>
                <mxCell id="31" style="edgeStyle=none;html=1;dashed=1;endArrow=open;endFill=0;" edge="1" parent="1">
                    <mxGeometry relative="1" as="geometry">
                        <mxPoint x="480" y="560.0000000000001" as="sourcePoint"/>
                        <mxPoint x="139.53666666666663" y="560.0000000000001" as="targetPoint"/>
                        <Array as="points">
                            <mxPoint x="460.5" y="560"/>
                        </Array>
                    </mxGeometry>
                </mxCell>
                <mxCell id="32" value="return" style="text;html=1;strokeColor=none;fillColor=none;align=center;verticalAlign=middle;whiteSpace=wrap;rounded=0;fontSize=9;" vertex="1" parent="1">
                    <mxGeometry x="289.87" y="540" width="60" height="20" as="geometry"/>
                </mxCell>
            </root>
        </mxGraphModel>
    </diagram>
</mxfile>